<svg width="53" height="40" viewBox="0 0 53 40" fill="none" xmlns="http://www.w3.org/2000/svg">
<g transform="matrix(1,0,0,1.3,0,-5.5)" filter="url(#filter0_d_9_2)">
<path d="M 13 33.7 C 11.4 33.7 10 33.3 8.7 32.5 C 7.5 31.8 6.5 30.8 5.7 29.5 C 5 28.3 4.6 26.8 4.6 25.3 C 4.6 24.2 4.8 23.1 5.3 22.1 C 5.8 21.1 6.5 20.3 7.3 19.5 C 6.5 18.8 5.8 17.9 5.3 16.9 C 4.8 15.9 4.6 14.9 4.6 13.8 C 4.6 12.3 5 10.9 5.7 9.7 C 6.4 8.5 7.4 7.5 8.6 6.8 C 9.9 6 11.3 5.7 12.8 5.7 H 24.3 V 10.7 H 13.4 C 12.8 10.7 12.3 10.8 11.8 11.1 C 11.4 11.4 11 11.8 10.7 12.3 C 10.5 12.7 10.3 13.2 10.3 13.8 C 10.3 14.4 10.5 14.9 10.7 15.4 C 11 15.8 11.4 16.2 11.8 16.5 C 12.3 16.8 12.8 16.9 13.4 16.9 H 22.9 V 21.9 H 13.6 C 13 21.9 12.5 22.1 12 22.4 C 11.5 22.7 11.1 23.1 10.8 23.6 C 10.5 24.1 10.3 24.7 10.3 25.3 C 10.3 25.9 10.5 26.5 10.8 27 C 11.1 27.5 11.5 27.9 12 28.2 C 12.5 28.5 13 28.6 13.6 28.6 H 24.3 V 33.7 H 13 Z" fill="url(#paint0_linear_9_2)"/>
</g>
<g transform="matrix(1,0,0,1.3,0,-5.5)" filter="url(#filter1_d_9_2)">
<path d="M 40 33.7 C 41.6 33.7 43 33.3 44.3 32.5 C 45.5 31.8 46.5 30.8 47.3 29.5 C 48 28.3 48.4 26.8 48.4 25.3 C 48.4 24.2 48.2 23.1 47.7 22.1 C 47.2 21.1 46.5 20.3 45.7 19.5 C 46.5 18.8 47.2 17.9 47.7 16.9 C 48.2 15.9 48.4 14.9 48.4 13.8 C 48.4 12.3 48 10.9 47.3 9.7 C 46.6 8.5 45.6 7.5 44.4 6.8 C 43.1 6 41.7 5.7 40.2 5.7 H 28.7 V 10.7 H 39.6 C 40.2 10.7 40.7 10.8 41.2 11.1 C 41.6 11.4 42 11.8 42.3 12.3 C 42.5 12.7 42.7 13.2 42.7 13.8 C 42.7 14.4 42.5 14.9 42.3 15.4 C 42 15.8 41.6 16.2 41.2 16.5 C 40.7 16.8 40.2 16.9 39.6 16.9 H 30.1 V 21.9 H 39.4 C 40 21.9 40.5 22.1 41 22.4 C 41.5 22.7 41.9 23.1 42.2 23.6 C 42.5 24.1 42.7 24.7 42.7 25.3 C 42.7 25.9 42.5 26.5 42.2 27 C 41.9 27.5 41.5 27.9 41 28.2 C 40.5 28.5 40 28.6 39.4 28.6 H 28.7 V 33.7 H 40 Z" fill="url(#paint1_linear_9_2)"/>
</g>
<defs>
<filter id="filter0_d_9_2" x="0.600006" y="3" width="27.68" height="36" filterUnits="userSpaceOnUse" color-interpolation-filters="sRGB">
<feFlood flood-opacity="0" result="BackgroundImageFix"/>
<feColorMatrix in="SourceAlpha" type="matrix" values="0 0 0 0 0 0 0 0 0 0 0 0 0 0 0 0 0 0 127 0" result="hardAlpha"/>
<feOffset dy="4"/>
<feGaussianBlur stdDeviation="2"/>
<feComposite in2="hardAlpha" operator="out"/>
<feColorMatrix type="matrix" values="0 0 0 0 0 0 0 0 0 0 0 0 0 0 0 0 0 0 0.25 0"/>
<feBlend mode="normal" in2="BackgroundImageFix" result="effect1_dropShadow_9_2"/>
<feBlend mode="normal" in="SourceGraphic" in2="effect1_dropShadow_9_2" result="shape"/>
</filter>
<filter id="filter1_d_9_2" x="24.72" y="3" width="27.68" height="36" filterUnits="userSpaceOnUse" color-interpolation-filters="sRGB">
<feFlood flood-opacity="0" result="BackgroundImageFix"/>
<feColorMatrix in="SourceAlpha" type="matrix" values="0 0 0 0 0 0 0 0 0 0 0 0 0 0 0 0 0 0 127 0" result="hardAlpha"/>
<feOffset dy="4"/>
<feGaussianBlur stdDeviation="2"/>
<feComposite in2="hardAlpha" operator="out"/>
<feColorMatrix type="matrix" values="0 0 0 0 0 0 0 0 0 0 0 0 0 0 0 0 0 0 0.25 0"/>
<feBlend mode="normal" in2="BackgroundImageFix" result="effect1_dropShadow_9_2"/>
<feBlend mode="normal" in="SourceGraphic" in2="effect1_dropShadow_9_2" result="shape"/>
</filter>
<linearGradient id="paint0_linear_9_2" x1="23" y1="0" x2="23" y2="40" gradientUnits="userSpaceOnUse">
<stop stop-color="#2369ff"/>
<stop offset="1" stop-color="#1d54c9"/>
</linearGradient>
<linearGradient id="paint1_linear_9_2" x1="30" y1="0" x2="30" y2="40" gradientUnits="userSpaceOnUse">
<stop stop-color="#2369ff"/>
<stop offset="1" stop-color="#1d54c9"/>
</linearGradient>
</defs>
</svg>
